<svg height="30" viewBox="0 0 30 30" width="30" xmlns="http://www.w3.org/2000/svg"><path d="m18.134402 15.9852144c0-2.6688024 5.378545-4.9310005 12.8581997-5.744209l-9.2478421-9.2410054c-.8138102 7.47412518-3.0776819 12.8560867-5.7410605 12.8560867-2.6707768 0-4.9346485-5.37456871-5.7484587-12.8486939l-9.2552404 9.2410054c7.47965475.8132085 12.865598 3.0754066 12.865598 5.7368162s-5.37854498 4.9310005-12.85819973 5.744209l9.25524043 9.2705766c.8138101-7.4741252 3.0776819-12.8560867 5.7410604-12.8560867 2.6707769 0 4.9346486 5.3745687 5.7484587 12.8486939l9.2478422-9.2779694c-7.487053-.7984229-12.865598-3.060621-12.865598-5.7294234zm-3.134402 1.0147856c.9071038-.9344729 1-1.7321937 1-2 0 .2678063.0928962 1.0655271 1 2 0 0-.9672131-.5698006-2 0z" fill="#ff1145" transform="translate(-1 -1)"/></svg>