<svg height="83" viewBox="0 0 93 83" width="93" xmlns="http://www.w3.org/2000/svg"><g fill="none" fill-rule="evenodd"><g transform="translate(-.156627)"><rect height="57" rx="9" stroke="#ff1145" stroke-width="4" width="89.196581" x="2.065952" y="2"/><path d="m7.296722 7.32h36.153846v18.706667h-36.153846z" fill="#ff1145" opacity=".697893"/><path d="m7.54779 25.773874 35.651709-18.201081" opacity=".2131" stroke="#ff1145" stroke-linecap="square"/><path d="m7.54779 25.773874 35.651709-18.201081" opacity=".2131" stroke="#ff1145" stroke-linecap="square" transform="matrix(-1 0 0 1 50.74729 0)"/><path d="m49.877918 7.32h36.153846v18.706667h-36.153846z" fill="#ff1145" opacity=".697893"/><g stroke="#ff1145"><path d="m8.690531 31.72h76.750842" opacity=".697893" stroke-linecap="round" stroke-width="4"/><path d="m8.690531 37.413333h76.750842" opacity=".697893" stroke-linecap="round" stroke-width="4"/><path d="m8.690531 43.106667h76.750842" opacity=".697893" stroke-linecap="round" stroke-width="4"/></g><path d="m38.630055 47.986667h16.871795v4.88h-16.871795z" fill="#ff1145" opacity=".697893"/><path d="m50.128987 25.773874 35.651709-18.201081" opacity=".2131" stroke="#ff1145" stroke-linecap="square"/><path d="m50.128987 25.773874 35.651709-18.201081" opacity=".2131" stroke="#ff1145" stroke-linecap="square" transform="matrix(-1 0 0 1 135.909682 0)"/></g><g stroke="#ff1145" stroke-linecap="round"><g stroke-width="4" transform="translate(29.824854 59)"><path d="m8.69107018 0c0 14.1428571-2.89702339 21.2142857-8.69107018 21.2142857" transform="translate(.410033)"/><path d="m8.69107018 0c0 14.1428571-2.89702339 21.2142857-8.69107018 21.2142857" transform="matrix(-1 0 0 1 34.650774 0)"/></g><path d="m26.241521 80.607143h42.203704" stroke-width="5"/></g></g></svg>