<svg height="102" viewBox="0 0 116 102" width="116" xmlns="http://www.w3.org/2000/svg"><g fill="none" fill-rule="evenodd"><rect height="71" rx="9" stroke="#4a7e92" stroke-width="3" width="113" x="1.58209" y="1.5"/><path d="m9.08209 9h45v23h-45z" fill="#4a7e92" opacity=".697893"/><path d="m9.39459 31.689189 44.375-22.378378" opacity=".2131" stroke="#447d92" stroke-linecap="square"/><path d="m9.39459 31.689189 44.375-22.378378" opacity=".2131" stroke="#447d92" stroke-linecap="square" transform="matrix(-1 0 0 1 63.16418 0)"/><path d="m62.08209 9h45v23h-45z" fill="#4a7e92" opacity=".697893"/><g stroke="#4a7e92"><path d="m10.816938 39h95.530303" opacity=".697893" stroke-linecap="round" stroke-width="4"/><path d="m10.816938 46h95.530303" opacity=".697893" stroke-linecap="round" stroke-width="4"/><path d="m10.816938 53h95.530303" opacity=".697893" stroke-linecap="round" stroke-width="4"/></g><path d="m48.08209 59h21v6h-21z" fill="#4a7e92" opacity=".697893"/><path d="m62.39459 31.689189 44.375-22.378378" opacity=".2131" stroke="#447d92" stroke-linecap="square"/><path d="m62.39459 31.689189 44.375-22.378378" opacity=".2131" stroke="#447d92" stroke-linecap="square" transform="matrix(-1 0 0 1 169.16418 0)"/><g stroke="#4a7e92" stroke-linecap="round" stroke-width="3"><path d="m10.9143754 0c0 18.3222168-3.63812514 27.4833253-10.9143754 27.4833253" transform="translate(36.597015 73)"/><path d="m10.9143672 0c0 18.3884991-3.6381224 27.5827487-10.9143672 27.5827487" transform="matrix(-1 0 0 1 79.597015 73)"/><path d="m31.58209 100.5h53"/></g></g></svg>