<svg height="82" viewBox="0 0 103 82" width="103" xmlns="http://www.w3.org/2000/svg"><g fill="none" fill-rule="evenodd" stroke="#4a7e92" stroke-width="3.5"><path d="m14.3814433 19.1972305c1.5169263 2.8905566 4.1541109 4.8027695 7.1534938 4.8027695 2.8161966 0 5.3130861-1.6857701 6.8632091-4.2835996 2.522953 1.9479165 4.7694896 4.8667621 6.6013517 8.5022796-5.7422492 5.0364269-10.4720226 13.4115494-13.4665118 23.7804904l-19.5329861.0008296c0-15.0267971 5.14995632-27.841805 12.3814433-32.8027695zm7.1534938-17.1972305c4.1495569 0 7.5134374 3.35786438 7.5134374 7.5 0 4.1421356-3.3638805 7.5-7.5134374 7.5s-7.5134373-3.3578644-7.5134373-7.5c0-4.14213562 3.3638804-7.5 7.5134373-7.5z"/><path d="m80.3814433 19.1972305c1.5169316 2.8905604 4.1541139 4.8027695 7.1534938 4.8027695 2.8161966 0 5.3130861-1.6857701 6.8632091-4.2835996 2.522953 1.9479165 4.7694896 4.8667621 6.6013518 8.5022796-5.7422493 5.0364269-10.4720227 13.4115494-13.4665119 23.7804904l-19.5329861.0008296c0-15.0267971 5.1499563-27.841805 12.3814433-32.8027695zm7.1534938-17.1972305c4.1495569 0 7.5134374 3.35786438 7.5134374 7.5 0 4.1421356-3.3638805 7.5-7.5134374 7.5s-7.5134373-3.3578644-7.5134373-7.5c0-4.14213562 3.3638804-7.5 7.5134373-7.5z" transform="matrix(-1 0 0 1 169 0)"/><path d="m52 37.1954954c4.6221213 0 8.6808407-3.0477316 10.9859396-7.6394007 10.5861938 8.311663 18.0140604 27.767884 18.0140604 50.4439053h-59c0-23.1967309 7.7729156-43.0240912 18.7484889-51 2.2496801 4.9012719 6.4461115 8.1954954 11.2515111 8.1954954z"/><circle cx="52" cy="17" r="10.25"/></g></svg>